<svg xmlns="http://www.w3.org/2000/svg" viewBox="0 0 116.04 130"><defs><style>.cls-1{fill:none;stroke:#282d33;stroke-width:4px;}</style></defs><title>Ресурс 11</title><g id="Слой_2" data-name="Слой 2"><g id="Слой_1-2" data-name="Слой 1"><line class="cls-1" x1="44.62" y1="87.41" x2="49.9" y2="87.41"/><line class="cls-1" x1="54.36" y1="87.41" x2="59.63" y2="87.41"/><line class="cls-1" x1="64.09" y1="87.41" x2="69.37" y2="87.41"/><path class="cls-1" d="M99.85,52.12a37,37,0,0,1,2.6,13.68v35.08"/><path class="cls-1" d="M39.75,127.16c-15.95-1.93-27.63-9.06-27.63-26.28V65.8a37.13,37.13,0,0,1,3.37-15.52"/><path class="cls-1" d="M53.81,124.71A3.3,3.3,0,0,1,50.49,128H42a3.31,3.31,0,0,1-3.32-3.29h0A3.31,3.31,0,0,1,42,121.42h8.53a3.3,3.3,0,0,1,3.32,3.29Z"/><path class="cls-1" d="M40.78,34.34a32.83,32.83,0,0,0-19,14.54,4.88,4.88,0,0,1-6.69,1.63,4.79,4.79,0,0,1-1.65-6.63A42.48,42.48,0,0,1,40.76,24.37"/><path class="cls-1" d="M14.14,68A12.09,12.09,0,0,0,2,80V94.87a12.09,12.09,0,0,0,12.14,12"/><path class="cls-1" d="M25.12,106A4.06,4.06,0,0,1,21,110H16.49a4.06,4.06,0,0,1-4.08-4V69.13a4.06,4.06,0,0,1,4.08-4H21a4.06,4.06,0,0,1,4.08,4Z"/><path class="cls-1" d="M100.78,107.15a12.08,12.08,0,0,0,12.14-12V80.23a12.08,12.08,0,0,0-12.14-12"/><path class="cls-1" d="M89.8,69.13a4.06,4.06,0,0,1,4.08-4h4.56a4.06,4.06,0,0,1,4.08,4V106a4.06,4.06,0,0,1-4.08,4H93.88a4.06,4.06,0,0,1-4.08-4Z"/><polygon class="cls-1" points="41.02 2 114.04 2 114.04 51.53 72.7 51.53 56.79 67.3 56.79 51.53 41.02 51.53 41.02 2"/><line class="cls-1" x1="98.74" y1="20.99" x2="56.32" y2="20.99"/><line class="cls-1" x1="98.74" y1="32.66" x2="56.32" y2="32.66"/></g></g></svg>