<svg xmlns="http://www.w3.org/2000/svg" viewBox="0 0 129.59 130"><defs><style>.cls-1{fill:none;stroke:#282d33;stroke-width:4px;}.cls-2{fill:#282d33;}</style></defs><title>Ресурс 10</title><g id="Слой_2" data-name="Слой 2"><g id="Слой_1-2" data-name="Слой 1"><polyline class="cls-1" points="70.87 82.57 69.72 81.43 64.21 64.77 80.92 70.26 82.06 71.41"/><path class="cls-2" d="M82.21,73.81l36.92,36.83-8.93,8.92L73.28,82.73l8.93-8.92m0-5.65L67.62,82.73l42.58,42.48,14.59-14.57L82.21,68.16Z"/><line class="cls-1" x1="116.43" y1="116.86" x2="78" y2="78.52"/><path class="cls-1" d="M111.37,123.09l4.56,4.55a1.61,1.61,0,0,0,2.25-.23l8.82-8.8a1.61,1.61,0,0,0,.23-2.25l-4.55-4.55"/><path class="cls-1" d="M98.15,87.31a45.18,45.18,0,1,0-12,11.51"/><path class="cls-1" d="M87.46,76A30,30,0,1,0,75.07,87.82"/><path class="cls-1" d="M71,51.62a13.6,13.6,0,1,0,0,19.22A13.65,13.65,0,0,0,71,51.62Z"/><line class="cls-1" x1="61.37" y1="39.09" x2="61.37"/><line class="cls-1" x1="61.37" y1="122.45" x2="61.37" y2="83.36"/><line class="cls-1" x1="83.56" y1="61.23" x2="122.74" y2="61.23"/><line class="cls-1" y1="61.23" x2="39.18" y2="61.23"/></g></g></svg>