<svg xmlns="http://www.w3.org/2000/svg" viewBox="0 0 109.84 110.88"><defs><style>.cls-1{fill:none;stroke:#282d33;stroke-width:4px;}.cls-2{fill:#282d33;}</style></defs><title>Ресурс 12</title><g id="Слой_2" data-name="Слой 2"><g id="Слой_1-2" data-name="Слой 1"><polyline class="cls-1" points="12.37 20.23 10.5 18.33 6.02 2.97 21.19 7.51 23.07 9.4"/><path class="cls-2" d="M23.21,11.08,99.14,88,90,97.26,14,20.38l9.18-9.3m0-4.82L9.27,20.38,90,102.08,103.9,88,23.21,6.26Z"/><path class="cls-1" d="M93.72,102.62l3.07,3.1a1.52,1.52,0,0,0,2.13-.21l8.35-8.46a1.56,1.56,0,0,0,.23-2.16l-3.07-3.11"/><path class="cls-1" d="M57.45,69a2.25,2.25,0,0,0,0-3.15l-13-13.13a2.18,2.18,0,0,0-3.11,0L2.64,91.94a2.28,2.28,0,0,0,0,3.16l13,13.13a2.18,2.18,0,0,0,3.11,0Z"/><path class="cls-1" d="M51.11,48.38l-3.9,3.94a2,2,0,0,0-.41,2.73l8.36,8.47a2,2,0,0,0,2.69-.43l3.89-3.94Z"/><line class="cls-1" x1="55.06" y1="55.15" x2="90.35" y2="19.38"/><polygon class="cls-1" points="89.96 18.57 89.99 11 100.2 5.05 104.54 9.44 98.66 19.78 91.18 19.81 89.96 18.57"/><line class="cls-1" x1="43.7" y1="60.81" x2="10.63" y2="94.3"/><line class="cls-1" x1="49.47" y1="66.65" x2="16.4" y2="100.14"/></g></g></svg>