<svg xmlns="http://www.w3.org/2000/svg" viewBox="0 0 130 93.16"><defs><style>.cls-1{fill:none;stroke:#282d33;stroke-width:4px;}</style></defs><title>Ресурс 9</title><g id="Слой_2" data-name="Слой 2"><g id="Слой_1-2" data-name="Слой 1"><polyline class="cls-1" points="110.28 71.63 110.28 81.68 24.63 81.68 24.63 60.7"/><polyline class="cls-1" points="24.63 43.81 24.63 23.52 110.28 23.52 110.28 32.7"/><polyline class="cls-1" points="15.84 40.12 15.84 14.03 119.07 14.03 119.07 91.16 15.84 91.16 15.84 64.39"/><polyline class="cls-1" points="54.05 8.95 54.05 2 80.87 2 80.87 8.95"/><path class="cls-1" d="M65,39.47a2.45,2.45,0,0,0-2.43,2.46V44a3.21,3.21,0,0,0-1.23-.25H55.26V60.56h6.09a3,3,0,0,0,1.23-.25v2.1A2.44,2.44,0,0,0,65,64.86h60.56A2.44,2.44,0,0,0,128,62.41V41.92a2.44,2.44,0,0,0-2.43-2.45Z"/><line class="cls-1" x1="55.21" y1="52.16" x2="18.38" y2="52.17"/><polygon class="cls-1" points="20.45 52.96 14.58 57.78 2 54.98 2 49.36 14.58 46.55 20.45 51.37 20.45 52.96"/><line class="cls-1" x1="69.43" y1="56.47" x2="121.15" y2="56.47"/><line class="cls-1" x1="69.43" y1="47.87" x2="121.15" y2="47.87"/><line class="cls-1" x1="62.87" y1="64.92" x2="62.87" y2="39.47"/></g></g></svg>