<svg xmlns="http://www.w3.org/2000/svg" viewBox="0 0 164 164"><defs><style>.cls-1{fill:#257eb8;}.cls-2{fill:#fff;}</style></defs><title>cctv-house-image</title><g id="Слой_2" data-name="Слой 2"><g id="Слой_1-2" data-name="Слой 1"><circle class="cls-1" cx="82" cy="82" r="82"/><path class="cls-2" d="M120.05,78.63H88.7V105h31.35Zm-1.52,24.84H90.22V80.15h28.31Zm26.72-36.89L123.7,51.21V30.72h-11V43.38L84.78,23.46,24.32,66.58a.73.73,0,0,0-.31.49.77.77,0,0,0,.13.57.75.75,0,0,0,1.06.17L84.78,25.33l59.59,42.48a.76.76,0,0,0,.88-1.23ZM122.18,50.13l-8-5.67V32.24h8ZM36.1,68.63V129H53.05V80.15h20V129h60.38V68.63L84.78,33.86ZM132,127.48H74.59V78.63H51.54v48.85H37.62V69.41L84.78,35.73,132,69.41Z"/></g></g></svg>