<svg xmlns="http://www.w3.org/2000/svg" viewBox="0 0 221.99 228.31"><defs><style>.cls-1{fill:#257eb8;}.cls-2{font-size:24px;font-family:RobotoCondensed-Light, Roboto Condensed;}.cls-3{letter-spacing:-0.01em;}.cls-4{fill:none;stroke:#fff;stroke-width:2px;}</style></defs><title>Ресурс 2</title><g id="Слой_2" data-name="Слой 2"><g id="Слой_1-2" data-name="Слой 1"><circle class="cls-1" cx="110.99" cy="82" r="82"/><text class="cls-2" transform="translate(20.64 193)">Видеонабл<tspan class="cls-3" x="106.21" y="0">ю</tspan><tspan x="122.88" y="0">дение</tspan><tspan x="-20.64" y="28.8">в квартире и подьезде</tspan></text><line class="cls-4" x1="118.14" y1="110.88" x2="110.3" y2="110.88"/><line class="cls-4" x1="156.93" y1="49.73" x2="156.93" y2="88.35"/><path class="cls-4" d="M63.39,110.88a3.7,3.7,0,0,1-3.69-3.7V49.73"/><line class="cls-4" x1="67.85" y1="52.96" x2="72.85" y2="52.96"/><line class="cls-4" x1="78.75" y1="52.96" x2="83.76" y2="52.96"/><line class="cls-4" x1="89.66" y1="52.96" x2="94.66" y2="52.96"/><line class="cls-4" x1="100.57" y1="52.96" x2="105.57" y2="52.96"/><line class="cls-4" x1="111.47" y1="52.96" x2="116.47" y2="52.96"/><line class="cls-4" x1="122.38" y1="52.96" x2="127.38" y2="52.96"/><line class="cls-4" x1="133.28" y1="52.96" x2="138.29" y2="52.96"/><line class="cls-4" x1="144.19" y1="52.96" x2="149.19" y2="52.96"/><line class="cls-4" x1="67.85" y1="62.04" x2="72.85" y2="62.04"/><line class="cls-4" x1="78.75" y1="62.04" x2="83.76" y2="62.04"/><line class="cls-4" x1="89.66" y1="62.04" x2="94.66" y2="62.04"/><line class="cls-4" x1="100.57" y1="62.04" x2="105.57" y2="62.04"/><line class="cls-4" x1="111.47" y1="62.04" x2="116.47" y2="62.04"/><line class="cls-4" x1="122.38" y1="62.04" x2="127.38" y2="62.04"/><line class="cls-4" x1="133.28" y1="62.04" x2="138.29" y2="62.04"/><line class="cls-4" x1="144.19" y1="62.04" x2="149.19" y2="62.04"/><line class="cls-4" x1="67.85" y1="71.12" x2="72.85" y2="71.12"/><line class="cls-4" x1="100.57" y1="71.12" x2="105.57" y2="71.12"/><line class="cls-4" x1="111.47" y1="71.12" x2="116.47" y2="71.12"/><line class="cls-4" x1="122.38" y1="71.12" x2="127.38" y2="71.12"/><line class="cls-4" x1="144.19" y1="71.12" x2="149.19" y2="71.12"/><line class="cls-4" x1="100.57" y1="80.2" x2="125.86" y2="80.2"/><line class="cls-4" x1="111.47" y1="80.2" x2="116.47" y2="80.2"/><line class="cls-4" x1="122.38" y1="80.2" x2="127.38" y2="80.2"/><line class="cls-4" x1="144.19" y1="80.2" x2="149.19" y2="80.2"/><path class="cls-4" d="M163.31,45.1c-1.73-3-4.95-6.11-8.65-6.11H62c-3.7,0-6.92,3.11-8.65,6.11Z"/><path class="cls-4" d="M157.47,129.72v-4.88a9.52,9.52,0,0,0,3.82-7.63V100.66L161.11,97a3.54,3.54,0,0,0-3.53-3.55c-2,0-3.54.7-3.54,2.66v-.89a3.53,3.53,0,1,0-7.06,0V93.46a3.53,3.53,0,1,0-7.06,0v2c0-4.79,0-20.43,0-20.43a3.65,3.65,0,1,0-7.3,0l0,35.85-.08-1.75V101.8a5.4,5.4,0,0,0-5.4-5.42h-1.79c-.08,0,.07,0,0,0v6.78s0,0,0,0v9l10.23,12a9.44,9.44,0,0,0,4.28,2.35v3.25"/><path class="cls-4" d="M71.38,129.72v-4.88a9.49,9.49,0,0,1-3.82-7.63V95.59"/><path class="cls-4" d="M96.27,95.59l0,15.28.07-1.75V101.8a5.4,5.4,0,0,1,5.4-5.42h1.8c-.23,0-.45,0,0,0v6.78s0,0,0,0v9l-10.23,12A9.52,9.52,0,0,1,89,126.47v3.25"/><path class="cls-4" d="M67.56,95.72V82.85a3.54,3.54,0,0,1,3.54-3.56h0a3.55,3.55,0,0,1,3.54,3.56V95.72"/><path class="cls-4" d="M74.76,95.72V75.13a3.54,3.54,0,0,1,3.54-3.56h0a3.54,3.54,0,0,1,3.54,3.56V95.72"/><path class="cls-4" d="M82,95.72V71.49a3.56,3.56,0,0,1,3.54-3.56h0a3.56,3.56,0,0,1,3.55,3.56V95.72"/><path class="cls-4" d="M89.17,95.72V77.64a3.54,3.54,0,0,1,3.54-3.55h0a3.54,3.54,0,0,1,3.54,3.55V95.72"/><polyline class="cls-4" points="163.72 130.04 133.2 130.04 133.2 137"/><polyline class="cls-4" points="62.95 130.04 96.73 130.04 96.73 137"/><polyline class="cls-4" points="62.95 130.04 96.73 130.04 96.73 137"/></g></g></svg>