<svg xmlns="http://www.w3.org/2000/svg" viewBox="0 0 197.12 228.31"><defs><style>.cls-1{fill:#257eb8;}.cls-2{font-size:24px;font-family:RobotoCondensed-Light, Roboto Condensed;}.cls-3{letter-spacing:-0.01em;}.cls-4{fill:none;stroke:#fff;stroke-width:2px;}</style></defs><title>Ресурс 5</title><g id="Слой_2" data-name="Слой 2"><g id="Слой_1-2" data-name="Слой 1"><circle class="cls-1" cx="90.81" cy="82" r="82"/><text class="cls-2" transform="translate(8.21 193)">Видеонабл<tspan class="cls-3" x="106.21" y="0">ю</tspan><tspan x="122.88" y="0">дение</tspan><tspan x="-8.21" y="28.8">в офисе и на складе</tspan></text><polyline class="cls-4" points="84.75 56.23 95.96 56.23 101.13 56.23"/><line class="cls-4" x1="76.36" y1="26" x2="76.36" y2="100.99"/><line class="cls-4" x1="101.9" y1="26" x2="101.9" y2="100.99"/><line class="cls-4" x1="82.46" y1="32.51" x2="102.66" y2="32.51"/><line class="cls-4" x1="82.46" y1="44.37" x2="102.66" y2="44.37"/><line class="cls-4" x1="82.46" y1="56.23" x2="102.66" y2="56.23"/><line class="cls-4" x1="82.46" y1="68.09" x2="102.66" y2="68.09"/><line class="cls-4" x1="82.46" y1="79.95" x2="102.66" y2="79.95"/><line class="cls-4" x1="82.46" y1="91.81" x2="102.66" y2="91.81"/><polyline class="cls-4" points="51.36 105.99 51.36 123.97 89.51 146.08 127.67 123.97 127.67 105.99"/><line class="cls-4" x1="89.51" y1="142.92" x2="89.51" y2="107.02"/><polygon class="cls-4" points="129.54 84.04 89.51 107.21 107.41 117.59 147.44 94.42 129.54 84.04"/><polygon class="cls-4" points="49.49 84.04 89.52 107.21 71.61 117.59 31.59 94.42 49.49 84.04"/><polyline class="cls-4" points="71.61 50.45 31.59 73.62 49.49 83.99 75.79 68.76"/><polyline class="cls-4" points="107.41 50.45 147.44 73.62 129.54 83.99 102.62 68.41"/></g></g></svg>