<svg xmlns="http://www.w3.org/2000/svg" viewBox="0 0 164 164"><defs><style>.cls-1{fill:#257eb8;}.cls-2{fill:#fff;}</style></defs><title>cctv-auto-image</title><g id="Слой_2" data-name="Слой 2"><g id="Слой_1-2" data-name="Слой 1"><circle class="cls-1" cx="82" cy="82" r="82"/><path class="cls-2" d="M49.05,93.57c5.17,7.12,24.38,6.94,33.25,6.94,9.87,0,26.35-.28,30.92-6.84,1.5-2.16,1.66-4.76.49-7.94a15,15,0,0,0-1.67-3c-5.1-.74-6.82-.75-31.11-.72-21.43,0-25-.18-31.16.75a14.26,14.26,0,0,0-1.5,3C47.25,88.87,47.5,91.43,49.05,93.57Zm.44-7.46a9.13,9.13,0,0,1,1.09-2.19c5.49-.79,9.13-.62,30.35-.65,22.94,0,25.77,0,30.33.62a10.34,10.34,0,0,1,1.25,2.26c1,2.78.91,5-.34,6.79-4.61,6.62-24.22,6.3-32.41,6.3-17.07,0-26.5-2-29.68-6.42C48.79,91,48.59,88.85,49.49,86.11Zm76.87,14.08c0,10.6,0,19.74-16.23,19.74H51.63c-16.23,0-16.23-9.14-16.23-19.74,0-5.85,1.24-13,10.74-16.41a.72.72,0,0,1,.5,0,.65.65,0,0,1,.32.37.64.64,0,0,1-.38.8c-8.77,3.19-9.91,9.79-9.91,15.21,0,10.72,0,18.47,15,18.47h58.5c15,0,15-7.75,15-18.47,0-5.81-1.18-12.14-9.77-15.23a.63.63,0,0,1-.39-.8h0a.65.65,0,0,1,.82-.4C125.08,87.1,126.36,93.93,126.36,100.19ZM48.94,80.91a.69.69,0,0,1,0-.49l6.54-12.85c1.14-2.45,4.69-3.78,7.45-3.78H98.76c2.76,0,6.32,1.33,7.46,3.8l6.53,12.83a.63.63,0,0,1-.28.86.63.63,0,0,1-.85-.28l-6.54-12.85c-.89-1.91-4-3.08-6.32-3.08H63c-2.35,0-5.43,1.17-6.3,3.06L50.12,81a.65.65,0,0,1-.86.28A.69.69,0,0,1,48.94,80.91Zm4.82,42.14v6.15a3.52,3.52,0,0,1-3.51,3.51h-7.8a3.51,3.51,0,0,1-3.51-3.51v-9.34a.64.64,0,1,1,1.27,0v9.34a2.24,2.24,0,0,0,2.24,2.23h7.8a2.24,2.24,0,0,0,2.24-2.23v-6.15a.64.64,0,0,1,.63-.64A.64.64,0,0,1,53.76,123.05Zm69-3.12v9.27a3.52,3.52,0,0,1-3.52,3.51h-7.79a3.51,3.51,0,0,1-3.51-3.51v-6.15a.63.63,0,0,1,.63-.63.64.64,0,0,1,.64.63v6.15a2.24,2.24,0,0,0,2.24,2.24h7.79a2.24,2.24,0,0,0,2.24-2.24v-9.27a.64.64,0,0,1,1.28,0Zm13.18-40.72a4.85,4.85,0,0,1-5,4.65c-7.79,0-6.69-.22-8.26.73a10.25,10.25,0,0,1-1.54.83.65.65,0,0,1-.59-.06.66.66,0,0,1-.28-.53h0a.62.62,0,0,1,.39-.58A10.21,10.21,0,0,0,122,83.5c2-1.18,1-.91,8.92-.91a3.4,3.4,0,1,0,0-6.76h-6.8a3.56,3.56,0,0,0-3.75,3.41v.09a6.76,6.76,0,0,1-.88,1.83l-.18.32h-.39c-.48,0-.72,0-9.23-16-1.49-3.2-5.75-5.79-9.52-5.79H61.57c-3.76,0-8,2.59-9.5,5.76L43.18,82.17a13.29,13.29,0,0,1-1.44-2.87v-.09A3.58,3.58,0,0,0,38,75.83h-6.8a3.4,3.4,0,1,0,0,6.76H38c.73,0,1.55.6,3,1.4l.56.32a.62.62,0,0,1,.21.9.64.64,0,0,1-.85.2A24.48,24.48,0,0,0,38,83.86h-6.8a4.66,4.66,0,1,1,0-9.3H38a4.85,4.85,0,0,1,5,4.59,2.76,2.76,0,0,0,.16.35l7.77-14.62c1.65-3.55,6.43-6.46,10.64-6.46h38.59c4.21,0,9,2.91,10.66,6.5,2.57,4.82,6.61,12.3,8.05,14.72.1-.21.19-.39.22-.48a4.82,4.82,0,0,1,5-4.6h6.8A4.84,4.84,0,0,1,135.92,79.21Zm4.5-25.32a.63.63,0,0,1-.86.25L81.05,22.46,22.54,54.14a.64.64,0,0,1-.92-.74.65.65,0,0,1,.31-.38L81.05,21l.3.16L140.17,53a.6.6,0,0,1,.3.38A.64.64,0,0,1,140.42,53.89ZM42.84,97.54l-.5,0-.15.42h0c-2.06,5.89.57,10.32,3.73,12.49a10.11,10.11,0,0,0,5.72,1.84,7.89,7.89,0,0,0,5.12-1.79,1.28,1.28,0,0,0,.3-1.55C56,106,44.29,97.54,42.84,97.54Zm13.07,12c-2.41,2-6.22,2-9.27-.15A9.07,9.07,0,0,1,43.21,99C46,100.34,56,108,55.91,109.58Zm49.5-.58a1.27,1.27,0,0,0,.3,1.53A8.17,8.17,0,0,0,111,112.4a10.16,10.16,0,0,0,5.73-1.83c4-2.75,5.31-7.45,3.52-12.57l-.2-.45h-.45C118.18,97.54,106.52,106,105.41,109Zm13.85-10c1.3,4.33.12,8.23-3.22,10.53-3,2.09-7,2.11-9.48.06C106.55,108,116.51,100.35,119.26,99Zm-21.82,12.7v-1.34c0-.95-.3-2.21-2.93-2.21H67.59c-2.63,0-2.94,1.26-2.94,2.21v1.34a.64.64,0,0,1-1.27,0v-1.34c0-1.3.54-3.48,4.21-3.48H94.51c3.66,0,4.21,2.18,4.21,3.48v1.34a.64.64,0,0,1-1.28,0Z"/></g></g></svg>