<svg xmlns="http://www.w3.org/2000/svg" viewBox="0 0 180.7 228.31"><defs><style>.cls-1{fill:#257eb8;}.cls-2{font-size:24px;font-family:RobotoCondensed-Light, Roboto Condensed;}.cls-3{letter-spacing:-0.01em;}.cls-4{letter-spacing:-0.01em;}.cls-5{fill:#fff;}</style></defs><title>Ресурс 4</title><g id="Слой_2" data-name="Слой 2"><g id="Слой_1-2" data-name="Слой 1"><circle class="cls-1" cx="86.85" cy="82" r="82"/><text class="cls-2" transform="translate(0 193)">Видеонабл<tspan class="cls-3" x="106.21" y="0">ю</tspan><tspan x="122.88" y="0">дение</tspan><tspan x="10" y="28.8">за а</tspan><tspan class="cls-4" x="48.66" y="28.8">в</tspan><tspan x="60.31" y="28.8">томобилем</tspan></text><path class="cls-5" d="M53.9,93.57c5.17,7.12,24.38,6.94,33.25,6.94,9.87,0,26.35-.28,30.92-6.84,1.51-2.16,1.66-4.76.49-7.94a15.43,15.43,0,0,0-1.66-3C111.79,82,110.08,82,85.78,82c-21.43,0-25-.18-31.16.75a14.78,14.78,0,0,0-1.5,3C52.1,88.87,52.35,91.43,53.9,93.57Zm.44-7.46a8.82,8.82,0,0,1,1.1-2.19c5.48-.79,9.12-.62,30.34-.65,22.94,0,25.77,0,30.33.62a10.34,10.34,0,0,1,1.25,2.26c1,2.78.92,5-.33,6.79-4.62,6.62-24.23,6.3-32.42,6.3-17.07,0-26.5-2-29.68-6.42C53.64,91,53.44,88.85,54.34,86.11Zm76.87,14.08c0,10.6,0,19.74-16.23,19.74H56.48c-16.23,0-16.23-9.14-16.23-19.74,0-5.85,1.24-13,10.75-16.41a.69.69,0,0,1,.49,0,.7.7,0,0,1,.33.37.64.64,0,0,1-.39.8c-8.77,3.19-9.91,9.79-9.91,15.21,0,10.72,0,18.47,15,18.47H115c15,0,15-7.75,15-18.47,0-5.81-1.18-12.14-9.77-15.23a.64.64,0,0,1-.39-.8h0a.65.65,0,0,1,.82-.4C129.94,87.1,131.21,93.93,131.21,100.19ZM53.8,80.91a.64.64,0,0,1,0-.49l6.54-12.85c1.14-2.45,4.69-3.78,7.45-3.78h35.79c2.76,0,6.32,1.33,7.46,3.8l6.53,12.83a.63.63,0,0,1-.28.86.63.63,0,0,1-.85-.28l-6.54-12.85c-.89-1.91-4-3.08-6.32-3.08H67.82c-2.35,0-5.42,1.17-6.3,3.06L55,81a.64.64,0,0,1-.86.28A.63.63,0,0,1,53.8,80.91Zm4.81,42.14v6.15a3.51,3.51,0,0,1-3.51,3.51H47.3a3.52,3.52,0,0,1-3.51-3.51v-9.34a.64.64,0,0,1,.64-.64.64.64,0,0,1,.63.64v9.34a2.24,2.24,0,0,0,2.24,2.23h7.8a2.24,2.24,0,0,0,2.24-2.23v-6.15a.64.64,0,1,1,1.27,0Zm69-3.12v9.27a3.51,3.51,0,0,1-3.51,3.51h-7.8a3.51,3.51,0,0,1-3.51-3.51v-6.15a.64.64,0,0,1,1.27,0v6.15a2.24,2.24,0,0,0,2.24,2.24h7.8a2.24,2.24,0,0,0,2.23-2.24v-9.27a.64.64,0,0,1,1.28,0Zm13.18-40.72a4.85,4.85,0,0,1-5,4.65c-7.79,0-6.69-.22-8.26.73a9.79,9.79,0,0,1-1.54.83.63.63,0,0,1-.87-.59h0a.63.63,0,0,1,.39-.58,10.21,10.21,0,0,0,1.36-.74c2-1.18,1-.91,8.92-.91a3.4,3.4,0,1,0,0-6.76H129a3.56,3.56,0,0,0-3.75,3.41v.09a6.92,6.92,0,0,1-.87,1.83l-.19.32h-.39c-.48,0-.72,0-9.23-16-1.49-3.2-5.75-5.79-9.52-5.79H66.43c-3.77,0-8,2.59-9.51,5.76L48,82.17a13.49,13.49,0,0,1-1.45-2.87v-.09a3.58,3.58,0,0,0-3.74-3.38H36a3.4,3.4,0,1,0,0,6.76h6.8c.74,0,1.55.6,3,1.4l.56.32a.62.62,0,0,1,.21.9.63.63,0,0,1-.84.2,25.22,25.22,0,0,0-2.9-1.55H36a4.66,4.66,0,1,1,0-9.3h6.8a4.86,4.86,0,0,1,5,4.59,2.35,2.35,0,0,0,.15.35l7.77-14.62c1.65-3.55,6.43-6.46,10.65-6.46H105c4.22,0,9,2.91,10.66,6.5,2.57,4.82,6.61,12.3,8,14.72.1-.21.19-.39.22-.48a4.82,4.82,0,0,1,5-4.6h6.8A4.84,4.84,0,0,1,140.77,79.21Zm4.5-25.32a.63.63,0,0,1-.86.25L85.9,22.46,27.39,54.14a.64.64,0,0,1-.87-.25.69.69,0,0,1-.05-.49.65.65,0,0,1,.31-.38L85.9,21l.3.16L145,53a.63.63,0,0,1,.25.87ZM47.69,97.54l-.5,0L47,98h0c-2.06,5.89.58,10.32,3.73,12.49a10.11,10.11,0,0,0,5.72,1.84,7.87,7.87,0,0,0,5.12-1.79,1.28,1.28,0,0,0,.3-1.55c-1.11-3-12.77-11.44-14.22-11.44Zm13.07,12c-2.41,2-6.22,2-9.26-.15A9.06,9.06,0,0,1,48.06,99C50.82,100.34,60.83,108,60.76,109.58Zm49.5-.58a1.27,1.27,0,0,0,.3,1.53,8.17,8.17,0,0,0,5.32,1.87,10.21,10.21,0,0,0,5.74-1.83c4-2.75,5.3-7.45,3.51-12.57l-.2-.45h-.45C123,97.54,111.37,106,110.26,109Zm13.85-10c1.3,4.33.12,8.23-3.22,10.53-3,2.09-7,2.11-9.47.06C111.4,108,121.36,100.35,124.11,99Zm-21.81,12.7v-1.34c0-.95-.31-2.21-2.94-2.21H72.44c-2.63,0-2.94,1.26-2.94,2.21v1.34a.64.64,0,0,1-1.27,0v-1.34c0-1.3.55-3.48,4.21-3.48H99.36c3.66,0,4.21,2.18,4.21,3.48v1.34a.64.64,0,0,1-.64.63A.63.63,0,0,1,102.3,111.69Z"/></g></g></svg>