<svg xmlns="http://www.w3.org/2000/svg" viewBox="0 0 164 164"><defs><style>.cls-1{fill:#257eb8;}.cls-2{fill:none;stroke:#fff;stroke-width:2px;}</style></defs><title>cctv-home-image</title><g id="Слой_2" data-name="Слой 2"><g id="Слой_1-2" data-name="Слой 1"><circle class="cls-1" cx="82" cy="82" r="82"/><line class="cls-2" x1="89.14" y1="110.88" x2="81.31" y2="110.88"/><line class="cls-2" x1="127.93" y1="49.73" x2="127.93" y2="88.35"/><path class="cls-2" d="M34.4,110.88a3.7,3.7,0,0,1-3.69-3.7V49.73"/><line class="cls-2" x1="38.85" y1="52.96" x2="43.85" y2="52.96"/><line class="cls-2" x1="49.76" y1="52.96" x2="54.76" y2="52.96"/><line class="cls-2" x1="60.67" y1="52.96" x2="65.67" y2="52.96"/><line class="cls-2" x1="71.57" y1="52.96" x2="76.57" y2="52.96"/><line class="cls-2" x1="82.48" y1="52.96" x2="87.48" y2="52.96"/><line class="cls-2" x1="93.38" y1="52.96" x2="98.39" y2="52.96"/><line class="cls-2" x1="104.29" y1="52.96" x2="109.29" y2="52.96"/><line class="cls-2" x1="115.2" y1="52.96" x2="120.2" y2="52.96"/><line class="cls-2" x1="38.85" y1="62.04" x2="43.85" y2="62.04"/><line class="cls-2" x1="49.76" y1="62.04" x2="54.76" y2="62.04"/><line class="cls-2" x1="60.67" y1="62.04" x2="65.67" y2="62.04"/><line class="cls-2" x1="71.57" y1="62.04" x2="76.57" y2="62.04"/><line class="cls-2" x1="82.48" y1="62.04" x2="87.48" y2="62.04"/><line class="cls-2" x1="93.38" y1="62.04" x2="98.39" y2="62.04"/><line class="cls-2" x1="104.29" y1="62.04" x2="109.29" y2="62.04"/><line class="cls-2" x1="115.2" y1="62.04" x2="120.2" y2="62.04"/><line class="cls-2" x1="38.85" y1="71.12" x2="43.85" y2="71.12"/><line class="cls-2" x1="71.57" y1="71.12" x2="76.57" y2="71.12"/><line class="cls-2" x1="82.48" y1="71.12" x2="87.48" y2="71.12"/><line class="cls-2" x1="93.38" y1="71.12" x2="98.39" y2="71.12"/><line class="cls-2" x1="115.2" y1="71.12" x2="120.2" y2="71.12"/><line class="cls-2" x1="71.57" y1="80.2" x2="96.86" y2="80.2"/><line class="cls-2" x1="82.48" y1="80.2" x2="87.48" y2="80.2"/><line class="cls-2" x1="93.38" y1="80.2" x2="98.39" y2="80.2"/><line class="cls-2" x1="115.2" y1="80.2" x2="120.2" y2="80.2"/><path class="cls-2" d="M134.32,45.1c-1.73-3-4.95-6.11-8.65-6.11H33c-3.7,0-6.93,3.11-8.66,6.11Z"/><path class="cls-2" d="M128.47,129.72v-4.88a9.49,9.49,0,0,0,3.82-7.63V100.66L132.12,97a3.55,3.55,0,0,0-3.54-3.55c-2,0-3.53.7-3.53,2.66v-.89a3.53,3.53,0,1,0-7.06,0V93.46a3.54,3.54,0,1,0-7.07,0v2c0-4.79,0-20.43,0-20.43a3.66,3.66,0,1,0-7.31,0l0,35.85-.07-1.75V101.8a5.4,5.4,0,0,0-5.4-5.42h-1.8c-.07,0,.08,0,0,0v6.78s0,0,0,0v9l10.23,12a9.42,9.42,0,0,0,4.29,2.35v3.25"/><path class="cls-2" d="M42.38,129.72v-4.88a9.49,9.49,0,0,1-3.82-7.63V95.59"/><path class="cls-2" d="M67.27,95.59l0,15.28.08-1.75V101.8a5.4,5.4,0,0,1,5.39-5.42h1.8c-.22,0-.45,0,0,0v6.78s0,0,0,0v9l-10.23,12a9.44,9.44,0,0,1-4.28,2.35v3.25"/><path class="cls-2" d="M38.56,95.72V82.85a3.55,3.55,0,0,1,3.54-3.56h0a3.54,3.54,0,0,1,3.54,3.56V95.72"/><path class="cls-2" d="M45.77,95.72V75.13a3.54,3.54,0,0,1,3.54-3.56h0a3.55,3.55,0,0,1,3.54,3.56V95.72"/><path class="cls-2" d="M53,95.72V71.49a3.56,3.56,0,0,1,3.54-3.56h0a3.55,3.55,0,0,1,3.54,3.56V95.72"/><path class="cls-2" d="M60.17,95.72V77.64a3.54,3.54,0,0,1,3.54-3.55h0a3.54,3.54,0,0,1,3.55,3.55V95.72"/><polyline class="cls-2" points="134.73 130.04 104.2 130.04 104.2 137"/><polyline class="cls-2" points="33.95 130.04 67.74 130.04 67.74 137"/><polyline class="cls-2" points="33.95 130.04 67.74 130.04 67.74 137"/></g></g></svg>