<svg xmlns="http://www.w3.org/2000/svg" viewBox="0 0 180.7 228.31"><defs><style>.cls-1{fill:#257eb8;}.cls-2{font-size:24px;font-family:RobotoCondensed-Light, Roboto Condensed;}.cls-3{letter-spacing:-0.01em;}.cls-4{fill:#fff;}</style></defs><title>Ресурс 7</title><g id="Слой_2" data-name="Слой 2"><g id="Слой_1-2" data-name="Слой 1"><circle class="cls-1" cx="86.35" cy="82" r="82"/><text class="cls-2" transform="translate(0 193)">Видеонабл<tspan class="cls-3" x="106.21" y="0">ю</tspan><tspan x="122.88" y="0">дение</tspan><tspan x="43.58" y="28.8">за домом</tspan></text><path class="cls-4" d="M124.4,78.63H93.05V105H124.4Zm-1.52,24.84H94.57V80.15h28.31ZM149.6,66.58,128.05,51.21V30.72h-11V43.38L89.13,23.46,28.67,66.58a.76.76,0,0,0-.31.49.82.82,0,0,0,.13.57.76.76,0,0,0,1.06.17L89.13,25.33l59.59,42.48a.76.76,0,1,0,.88-1.23ZM126.53,50.13l-7.94-5.67V32.24h7.94ZM40.45,68.63V129H57.4V80.15h20V129h60.38V68.63L89.13,33.86Zm95.85,58.85H79V78.63H55.89v48.85H42V69.41L89.13,35.73,136.3,69.41Z"/></g></g></svg>