<svg xmlns="http://www.w3.org/2000/svg" viewBox="0 0 164 164"><defs><style>.cls-1{fill:#257eb8;}.cls-2{fill:none;stroke:#fff;stroke-width:2px;}</style></defs><title>cctv-warehouse-image</title><g id="Слой_2" data-name="Слой 2"><g id="Слой_1-2" data-name="Слой 1"><circle class="cls-1" cx="82" cy="82" r="82"/><polyline class="cls-2" points="75.94 56.23 87.15 56.23 92.32 56.23"/><line class="cls-2" x1="67.55" y1="26" x2="67.55" y2="100.99"/><line class="cls-2" x1="93.09" y1="26" x2="93.09" y2="100.99"/><line class="cls-2" x1="73.65" y1="32.51" x2="93.85" y2="32.51"/><line class="cls-2" x1="73.65" y1="44.37" x2="93.85" y2="44.37"/><line class="cls-2" x1="73.65" y1="56.23" x2="93.85" y2="56.23"/><line class="cls-2" x1="73.65" y1="68.09" x2="93.85" y2="68.09"/><line class="cls-2" x1="73.65" y1="79.95" x2="93.85" y2="79.95"/><line class="cls-2" x1="73.65" y1="91.81" x2="93.85" y2="91.81"/><polyline class="cls-2" points="42.55 105.99 42.55 123.97 80.7 146.08 118.86 123.97 118.86 105.99"/><line class="cls-2" x1="80.7" y1="142.92" x2="80.7" y2="107.02"/><polygon class="cls-2" points="120.72 84.04 80.7 107.21 98.6 117.59 138.63 94.42 120.72 84.04"/><polygon class="cls-2" points="40.68 84.04 80.7 107.21 62.8 117.59 22.78 94.42 40.68 84.04"/><polyline class="cls-2" points="62.8 50.45 22.78 73.62 40.68 83.99 66.98 68.76"/><polyline class="cls-2" points="98.6 50.45 138.63 73.62 120.72 83.99 93.81 68.41"/></g></g></svg>