<svg xmlns="http://www.w3.org/2000/svg" viewBox="0 0 173.61 199.51"><defs><style>.cls-1{fill:#257eb8;}.cls-2{font-size:24px;font-family:RobotoCondensed-Light, Roboto Condensed;}.cls-3{fill:#fff;}</style></defs><title>Ресурс 1</title><g id="Слой_2" data-name="Слой 2"><g id="Слой_1-2" data-name="Слой 1"><circle class="cls-1" cx="82" cy="82" r="82"/><text class="cls-2" transform="translate(8.63 193)">Видеодомофоны</text><path class="cls-3" d="M80.93,140.23a143.51,143.51,0,0,1-38.5-5.37.78.78,0,0,1-.56-.74V32.2a.78.78,0,0,1,.55-.74,141,141,0,0,1,77,0,.78.78,0,0,1,.56.74V134.12a.78.78,0,0,1-.56.74A143.52,143.52,0,0,1,80.93,140.23Zm-37.68-6.58a141.74,141.74,0,0,0,37.68,5.2,141.82,141.82,0,0,0,37.69-5.2v-101a139.41,139.41,0,0,0-75.37,0Zm43-4.38H75.66a.76.76,0,0,1-.76-.76V118a.77.77,0,0,1,.76-.77H86.2A.78.78,0,0,1,87,118v10.54A.77.77,0,0,1,86.2,129.27Zm-9.92-1.38h9.31v-9.31H76.28Zm27.41-16.11H93.15a.76.76,0,0,1-.76-.76V100.48a.76.76,0,0,1,.76-.76h10.54a.76.76,0,0,1,.76.76V111A.76.76,0,0,1,103.69,111.78Zm-9.92-1.38h9.3v-9.3h-9.3Zm-7.57,1.38H75.66a.76.76,0,0,1-.76-.76V100.48a.76.76,0,0,1,.76-.76H86.2a.77.77,0,0,1,.77.76V111A.77.77,0,0,1,86.2,111.78Zm-9.92-1.38h9.31v-9.3H76.28Zm-7.56,1.38H58.18a.76.76,0,0,1-.77-.76V100.48a.76.76,0,0,1,.77-.76H68.72a.76.76,0,0,1,.76.76V111A.76.76,0,0,1,68.72,111.78Zm-9.93-1.38H68.1v-9.3H58.79ZM86.2,94.3H75.66a.77.77,0,0,1-.76-.77V83a.76.76,0,0,1,.76-.76H86.2A.77.77,0,0,1,87,83V93.53A.78.78,0,0,1,86.2,94.3Zm-9.92-1.38h9.31V83.61H76.28ZM106.61,73H55.26a.76.76,0,0,1-.76-.77V43a.76.76,0,0,1,.76-.76h51.35a.76.76,0,0,1,.76.76V72.27A.76.76,0,0,1,106.61,73ZM55.88,71.66H106v-28H55.88Z"/></g></g></svg>